<svg version="1" xmlns="http://www.w3.org/2000/svg" width="845.333" height="845.333" viewBox="0 0 634.000000 634.000000"><path d="M295.9 2c-4.1 1-10 3-13 4.3C274.4 10 69.2 128.8 63 133.5c-10.6 8.2-18.5 18.1-24.5 30.8-7.5 15.8-7 4.8-7 153.2v133l3.3 9.4c4.9 14.1 10.1 22.2 21.1 33.1l9.6 9.5 107.1 61.7c58.9 34 110.1 62.9 113.7 64.3 8.1 3 21.7 5.5 30.2 5.5s22.1-2.5 30.2-5.5c3.7-1.4 54.9-30.3 113.7-64.3l107.1-61.7 9.6-9.5c12.8-12.7 19.9-25.3 23.5-41.9 2.1-9.8 2.1-258.7-.1-268.8-4.1-19.8-14.7-36.7-30.5-48.8C563.9 128.8 358.6 10 350.1 6.3 335.7-.1 312-2 295.9 2z"/></svg>